<?xml version="1.0" encoding="UTF-8" standalone="no"?>
<!DOCTYPE svg PUBLIC "-//W3C//DTD SVG 1.1//EN"
 "http://www.w3.org/Graphics/SVG/1.1/DTD/svg11.dtd">
<!-- Generated by graphviz version 2.38.0 (20140413.2041)
 -->
<!-- Title: erd Pages: 1 -->
<svg width="3288pt" height="1174pt"
 viewBox="0.00 0.00 3288.00 1174.00" xmlns="http://www.w3.org/2000/svg" xmlns:xlink="http://www.w3.org/1999/xlink">
<g id="graph0" class="graph" transform="scale(1 1) rotate(0) translate(4 1170)">
<title>erd</title>
<polygon fill="white" stroke="none" points="-4,4 -4,-1170 3284,-1170 3284,4 -4,4"/>
<!-- Mutation -->
<g id="node1" class="node"><title>Mutation</title>
<polygon fill="none" stroke="black" points="8.5,-845.5 8.5,-870.5 1127.5,-870.5 1127.5,-845.5 8.5,-845.5"/>
<text text-anchor="start" x="538.668" y="-854.1" font-family="Times,serif" font-weight="bold" font-size="16.00">Mutation</text>
<polygon fill="none" stroke="black" points="8.5,-820.5 8.5,-845.5 1127.5,-845.5 1127.5,-820.5 8.5,-820.5"/>
<text text-anchor="start" x="404.291" y="-828.1" font-family="Times,serif" font-size="16.00">updateUser(id:ID!, input:UserUpdateInput!): User!</text>
<polygon fill="none" stroke="black" points="8.5,-795.5 8.5,-820.5 1127.5,-820.5 1127.5,-795.5 8.5,-795.5"/>
<text text-anchor="start" x="486.938" y="-803.1" font-family="Times,serif" font-size="16.00">deleteUser(id:ID!): User!</text>
<polygon fill="none" stroke="black" points="8.5,-770.5 8.5,-795.5 1127.5,-795.5 1127.5,-770.5 8.5,-770.5"/>
<text text-anchor="start" x="370.486" y="-778.1" font-family="Times,serif" font-size="16.00">passwordLogin(user:String!, password:String!): LoginResult!</text>
<polygon fill="none" stroke="black" points="8.5,-745.5 8.5,-770.5 1127.5,-770.5 1127.5,-745.5 8.5,-745.5"/>
<text text-anchor="start" x="388.265" y="-753.1" font-family="Times,serif" font-size="16.00">passwordChange(input:PasswordChangeInput!): String!</text>
<polygon fill="none" stroke="black" points="8.5,-720.5 8.5,-745.5 1127.5,-745.5 1127.5,-720.5 8.5,-720.5"/>
<text text-anchor="start" x="415.419" y="-728.1" font-family="Times,serif" font-size="16.00">createDevice(input:NewDeviceInput!): Device!</text>
<polygon fill="none" stroke="black" points="8.5,-695.5 8.5,-720.5 1127.5,-720.5 1127.5,-695.5 8.5,-695.5"/>
<text text-anchor="start" x="392.303" y="-703.1" font-family="Times,serif" font-size="16.00">deviceRegenerateActivationPassword(id:ID!): Device!</text>
<polygon fill="none" stroke="black" points="8.5,-670.5 8.5,-695.5 1127.5,-695.5 1127.5,-670.5 8.5,-670.5"/>
<text text-anchor="start" x="471.835" y="-678.1" font-family="Times,serif" font-size="16.00">deleteDevice(id:ID!): Device!</text>
<polygon fill="none" stroke="black" points="8.5,-645.5 8.5,-670.5 1127.5,-670.5 1127.5,-645.5 8.5,-645.5"/>
<text text-anchor="start" x="333.203" y="-653.1" font-family="Times,serif" font-size="16.00">updateDeviceConfig(id:ID!, config:DeviceConfigUpdateInput!): Device!</text>
<polygon fill="none" stroke="black" points="8.5,-620.5 8.5,-645.5 1127.5,-645.5 1127.5,-620.5 8.5,-620.5"/>
<text text-anchor="start" x="350.982" y="-628.1" font-family="Times,serif" font-size="16.00">createVehicleFilter(input:VehicleFilterCreateInput!): VehicleFilter!</text>
<polygon fill="none" stroke="black" points="8.5,-595.5 8.5,-620.5 1127.5,-620.5 1127.5,-595.5 8.5,-595.5"/>
<text text-anchor="start" x="322.974" y="-603.1" font-family="Times,serif" font-size="16.00">updateVehicleFilter(id:ID!, input:VehicleFilterUpdateInput!): VehicleFilter!</text>
<polygon fill="none" stroke="black" points="8.5,-570.5 8.5,-595.5 1127.5,-595.5 1127.5,-570.5 8.5,-570.5"/>
<text text-anchor="start" x="432.726" y="-578.1" font-family="Times,serif" font-size="16.00">deleteVehicleFilter(id:ID!): VehicleFilter!</text>
<polygon fill="none" stroke="black" points="8.5,-545.5 8.5,-570.5 1127.5,-570.5 1127.5,-545.5 8.5,-545.5"/>
<text text-anchor="start" x="357.618" y="-553.1" font-family="Times,serif" font-size="16.00">createParkingRule(input:ParkingRuleCreateInput!): ParkingRule!</text>
<polygon fill="none" stroke="black" points="8.5,-520.5 8.5,-545.5 1127.5,-545.5 1127.5,-520.5 8.5,-520.5"/>
<text text-anchor="start" x="329.61" y="-528.1" font-family="Times,serif" font-size="16.00">updateParkingRule(id:ID!, input:ParkingRuleUpdateInput!): ParkingRule!</text>
<polygon fill="none" stroke="black" points="8.5,-495.5 8.5,-520.5 1127.5,-520.5 1127.5,-495.5 8.5,-495.5"/>
<text text-anchor="start" x="435.826" y="-503.1" font-family="Times,serif" font-size="16.00">deleteParkingRule(id:ID!): DeleteResult!</text>
<polygon fill="none" stroke="black" points="8.5,-470.5 8.5,-495.5 1127.5,-495.5 1127.5,-470.5 8.5,-470.5"/>
<text text-anchor="start" x="222.519" y="-478.1" font-family="Times,serif" font-size="16.00">createParkingRuleAssignment(input:ParkingRuleAssignmentCreateInput!): ParkingRuleAssignmentResult!</text>
<polygon fill="none" stroke="black" points="8.5,-445.5 8.5,-470.5 1127.5,-470.5 1127.5,-445.5 8.5,-445.5"/>
<text text-anchor="start" x="194.511" y="-453.1" font-family="Times,serif" font-size="16.00">updateParkingRuleAssignment(id:ID!, input:ParkingRuleAssignmentUpdateInput!): ParkingRuleAssignmentResult!</text>
<polygon fill="none" stroke="black" points="8.5,-420.5 8.5,-445.5 1127.5,-445.5 1127.5,-420.5 8.5,-420.5"/>
<text text-anchor="start" x="360.714" y="-428.1" font-family="Times,serif" font-size="16.00">deleteParkingRuleAssignment(id:ID!): ParkingRuleAssignment!</text>
<polygon fill="none" stroke="black" points="8.5,-395.5 8.5,-420.5 1127.5,-420.5 1127.5,-395.5 8.5,-395.5"/>
<text text-anchor="start" x="11.444" y="-403.1" font-family="Times,serif" font-size="16.00">duplicateParkingRuleAssignments(start:DateTime!, end:DateTime!, targetStarts:null, options:ParkingRuleAssignmentDuplicationOptions!): ParkingRuleAssignmentsResult!</text>
<polygon fill="none" stroke="black" points="8.5,-370.5 8.5,-395.5 1127.5,-395.5 1127.5,-370.5 8.5,-370.5"/>
<text text-anchor="start" x="153.653" y="-378.1" font-family="Times,serif" font-size="16.00">deleteParkingRuleAssignments(start:DateTime!, end:DateTime!, options:ParkingRuleAssignmentMultiDeleteOptions): Boolean!</text>
<polygon fill="none" stroke="black" points="8.5,-345.5 8.5,-370.5 1127.5,-370.5 1127.5,-345.5 8.5,-345.5"/>
<text text-anchor="start" x="402.976" y="-353.1" font-family="Times,serif" font-size="16.00">createVehicle(input:VehicleCreateInput!): Vehicle!</text>
<polygon fill="none" stroke="black" points="8.5,-320.5 8.5,-345.5 1127.5,-345.5 1127.5,-320.5 8.5,-320.5"/>
<text text-anchor="start" x="467.389" y="-328.1" font-family="Times,serif" font-size="16.00">deleteVehicle(id:ID!): Vehicle!</text>
<polygon fill="none" stroke="black" points="8.5,-295.5 8.5,-320.5 1127.5,-320.5 1127.5,-295.5 8.5,-295.5"/>
<text text-anchor="start" x="374.08" y="-303.1" font-family="Times,serif" font-size="16.00">deleteVehicleByLicensePlate(licensePlate:String!): Vehicle!</text>
</g>
<!-- User -->
<g id="node2" class="node"><title>User</title>
<polygon fill="none" stroke="black" points="1498.5,-1136.5 1498.5,-1161.5 1715.5,-1161.5 1715.5,-1136.5 1498.5,-1136.5"/>
<text text-anchor="start" x="1591.9" y="-1145.1" font-family="Times,serif" font-weight="bold" font-size="16.00">User</text>
<polygon fill="none" stroke="black" points="1498.5,-1111.5 1498.5,-1136.5 1715.5,-1136.5 1715.5,-1111.5 1498.5,-1111.5"/>
<text text-anchor="start" x="1585.45" y="-1119.1" font-family="Times,serif" font-size="16.00">id: ID!</text>
<polygon fill="none" stroke="black" points="1498.5,-1086.5 1498.5,-1111.5 1715.5,-1111.5 1715.5,-1086.5 1498.5,-1086.5"/>
<text text-anchor="start" x="1563.23" y="-1094.1" font-family="Times,serif" font-size="16.00">name: String!</text>
<polygon fill="none" stroke="black" points="1498.5,-1061.5 1498.5,-1086.5 1715.5,-1086.5 1715.5,-1061.5 1498.5,-1061.5"/>
<text text-anchor="start" x="1537.02" y="-1069.1" font-family="Times,serif" font-size="16.00">email: EmailAddress!</text>
<polygon fill="none" stroke="black" points="1498.5,-1036.5 1498.5,-1061.5 1715.5,-1061.5 1715.5,-1036.5 1498.5,-1036.5"/>
<text text-anchor="start" x="1521.02" y="-1044.1" font-family="Times,serif" font-size="16.00">permissions: [Permission]!</text>
<polygon fill="none" stroke="black" points="1498.5,-1011.5 1498.5,-1036.5 1715.5,-1036.5 1715.5,-1011.5 1498.5,-1011.5"/>
<text text-anchor="start" x="1501.47" y="-1019.1" font-family="Times,serif" font-size="16.00">authentications: [Authentication]</text>
<polygon fill="none" stroke="black" points="1498.5,-986.5 1498.5,-1011.5 1715.5,-1011.5 1715.5,-986.5 1498.5,-986.5"/>
<text text-anchor="start" x="1506.38" y="-994.1" font-family="Times,serif" font-size="16.00">refreshTokens: [RefreshToken]</text>
<polygon fill="none" stroke="black" points="1498.5,-961.5 1498.5,-986.5 1715.5,-986.5 1715.5,-961.5 1498.5,-961.5"/>
<text text-anchor="start" x="1545.9" y="-969.1" font-family="Times,serif" font-size="16.00">isAdmin: Boolean!</text>
<polygon fill="none" stroke="black" points="1498.5,-936.5 1498.5,-961.5 1715.5,-961.5 1715.5,-936.5 1498.5,-936.5"/>
<text text-anchor="start" x="1554.35" y="-944.1" font-family="Times,serif" font-size="16.00">active: Boolean!</text>
</g>
<!-- Mutation&#45;&gt;User -->
<g id="edge1" class="edge"><title>Mutation:updateUserport&#45;&gt;User</title>
<path fill="none" stroke="black" d="M1128.5,-833.5C1232.45,-833.5 1091.09,-997.007 1171,-1063.5 1255.55,-1133.86 1384.66,-1119.57 1480.19,-1094.21"/>
<polygon fill="black" stroke="black" points="1481.18,-1097.56 1489.91,-1091.56 1479.34,-1090.81 1481.18,-1097.56"/>
</g>
<!-- Mutation&#45;&gt;User -->
<g id="edge2" class="edge"><title>Mutation:deleteUserport&#45;&gt;User</title>
<path fill="none" stroke="black" d="M1128.5,-808.5C1228.96,-808.5 1094.99,-964.814 1171,-1030.5 1193.99,-1050.37 1359.87,-1052.76 1479.85,-1051.8"/>
<polygon fill="black" stroke="black" points="1479.88,-1055.3 1489.85,-1051.71 1479.82,-1048.3 1479.88,-1055.3"/>
</g>
<!-- LoginResult -->
<g id="node3" class="node"><title>LoginResult</title>
<polygon fill="none" stroke="black" points="1240.5,-992.5 1240.5,-1017.5 1384.5,-1017.5 1384.5,-992.5 1240.5,-992.5"/>
<text text-anchor="start" x="1272.95" y="-1001.1" font-family="Times,serif" font-weight="bold" font-size="16.00">LoginResult</text>
<polygon fill="none" stroke="black" points="1240.5,-967.5 1240.5,-992.5 1384.5,-992.5 1384.5,-967.5 1240.5,-967.5"/>
<text text-anchor="start" x="1243.42" y="-975.1" font-family="Times,serif" font-size="16.00">refreshToken: String!</text>
<polygon fill="none" stroke="black" points="1240.5,-942.5 1240.5,-967.5 1384.5,-967.5 1384.5,-942.5 1240.5,-942.5"/>
<text text-anchor="start" x="1245.19" y="-950.1" font-family="Times,serif" font-size="16.00">accessToken: String!</text>
<polygon fill="none" stroke="black" points="1240.5,-917.5 1240.5,-942.5 1384.5,-942.5 1384.5,-917.5 1240.5,-917.5"/>
<text text-anchor="start" x="1277.19" y="-925.1" font-family="Times,serif" font-size="16.00">user: User!</text>
</g>
<!-- Mutation&#45;&gt;LoginResult -->
<g id="edge3" class="edge"><title>Mutation:passwordLoginport&#45;&gt;LoginResult</title>
<path fill="none" stroke="black" d="M1128.5,-783.5C1185.5,-783.5 1132.42,-862.544 1171,-904.5 1185.15,-919.888 1203.77,-931.754 1222.8,-940.813"/>
<polygon fill="black" stroke="black" points="1221.61,-944.114 1232.16,-945.038 1224.49,-937.734 1221.61,-944.114"/>
</g>
<!-- Device -->
<g id="node4" class="node"><title>Device</title>
<polygon fill="none" stroke="black" points="1179.5,-865.5 1179.5,-890.5 1446.5,-890.5 1446.5,-865.5 1179.5,-865.5"/>
<text text-anchor="start" x="1290.35" y="-874.1" font-family="Times,serif" font-weight="bold" font-size="16.00">Device</text>
<polygon fill="none" stroke="black" points="1179.5,-840.5 1179.5,-865.5 1446.5,-865.5 1446.5,-840.5 1179.5,-840.5"/>
<text text-anchor="start" x="1294.12" y="-848.1" font-family="Times,serif" font-size="16.00">id: ID</text>
<polygon fill="none" stroke="black" points="1179.5,-815.5 1179.5,-840.5 1446.5,-840.5 1446.5,-815.5 1179.5,-815.5"/>
<text text-anchor="start" x="1269.23" y="-823.1" font-family="Times,serif" font-size="16.00">name: String!</text>
<polygon fill="none" stroke="black" points="1179.5,-790.5 1179.5,-815.5 1446.5,-815.5 1446.5,-790.5 1179.5,-790.5"/>
<text text-anchor="start" x="1250.58" y="-798.1" font-family="Times,serif" font-size="16.00">activated: Boolean!</text>
<polygon fill="none" stroke="black" points="1179.5,-765.5 1179.5,-790.5 1446.5,-790.5 1446.5,-765.5 1179.5,-765.5"/>
<text text-anchor="start" x="1239.92" y="-773.1" font-family="Times,serif" font-size="16.00">activatedAt: DateTime</text>
<polygon fill="none" stroke="black" points="1179.5,-740.5 1179.5,-765.5 1446.5,-765.5 1446.5,-740.5 1179.5,-740.5"/>
<text text-anchor="start" x="1240.8" y="-748.1" font-family="Times,serif" font-size="16.00">lastContact: DateTime</text>
<polygon fill="none" stroke="black" points="1179.5,-715.5 1179.5,-740.5 1446.5,-740.5 1446.5,-715.5 1179.5,-715.5"/>
<text text-anchor="start" x="1235.91" y="-723.1" font-family="Times,serif" font-size="16.00">activationQrUrl: String!</text>
<polygon fill="none" stroke="black" points="1179.5,-690.5 1179.5,-715.5 1446.5,-715.5 1446.5,-690.5 1179.5,-690.5"/>
<text text-anchor="start" x="1182.15" y="-698.1" font-family="Times,serif" font-size="16.00">activationPasswordExpiresAt: DateTime</text>
<polygon fill="none" stroke="black" points="1179.5,-665.5 1179.5,-690.5 1446.5,-690.5 1446.5,-665.5 1179.5,-665.5"/>
<text text-anchor="start" x="1240.8" y="-673.1" font-family="Times,serif" font-size="16.00">config: DeviceConfig!</text>
</g>
<!-- Mutation&#45;&gt;Device -->
<g id="edge4" class="edge"><title>Mutation:createDeviceport&#45;&gt;Device</title>
<path fill="none" stroke="black" d="M1128.5,-733.5C1139.15,-733.5 1150.04,-734.227 1160.95,-735.496"/>
<polygon fill="black" stroke="black" points="1160.6,-738.98 1170.97,-736.809 1161.51,-732.039 1160.6,-738.98"/>
</g>
<!-- Mutation&#45;&gt;Device -->
<g id="edge5" class="edge"><title>Mutation:deviceRegenerateActivationPasswordport&#45;&gt;Device</title>
<path fill="none" stroke="black" d="M1128.5,-708.5C1139.24,-708.5 1150.12,-709.565 1160.94,-711.433"/>
<polygon fill="black" stroke="black" points="1160.36,-714.887 1170.84,-713.367 1161.7,-708.016 1160.36,-714.887"/>
</g>
<!-- Mutation&#45;&gt;Device -->
<g id="edge6" class="edge"><title>Mutation:deleteDeviceport&#45;&gt;Device</title>
<path fill="none" stroke="black" d="M1128.5,-683.5C1139.39,-683.5 1150.28,-684.843 1161.02,-687.209"/>
<polygon fill="black" stroke="black" points="1160.28,-690.631 1170.83,-689.66 1161.97,-683.84 1160.28,-690.631"/>
</g>
<!-- Mutation&#45;&gt;Device -->
<g id="edge7" class="edge"><title>Mutation:updateDeviceConfigport&#45;&gt;Device</title>
<path fill="none" stroke="black" d="M1128.5,-658.5C1139.55,-658.5 1150.46,-660.05 1161.1,-662.797"/>
<polygon fill="black" stroke="black" points="1160.23,-666.187 1170.81,-665.647 1162.2,-659.471 1160.23,-666.187"/>
</g>
<!-- VehicleFilter -->
<g id="node5" class="node"><title>VehicleFilter</title>
<polygon fill="none" stroke="black" points="1513.5,-572.5 1513.5,-597.5 1699.5,-597.5 1699.5,-572.5 1513.5,-572.5"/>
<text text-anchor="start" x="1564.29" y="-581.1" font-family="Times,serif" font-weight="bold" font-size="16.00">VehicleFilter</text>
<polygon fill="none" stroke="black" points="1513.5,-547.5 1513.5,-572.5 1699.5,-572.5 1699.5,-547.5 1513.5,-547.5"/>
<text text-anchor="start" x="1584.95" y="-555.1" font-family="Times,serif" font-size="16.00">id: ID!</text>
<polygon fill="none" stroke="black" points="1513.5,-522.5 1513.5,-547.5 1699.5,-547.5 1699.5,-522.5 1513.5,-522.5"/>
<text text-anchor="start" x="1562.73" y="-530.1" font-family="Times,serif" font-size="16.00">name: String!</text>
<polygon fill="none" stroke="black" points="1513.5,-497.5 1513.5,-522.5 1699.5,-522.5 1699.5,-497.5 1513.5,-497.5"/>
<text text-anchor="start" x="1516.09" y="-505.1" font-family="Times,serif" font-size="16.00">action: VehicleFilterAction!</text>
<polygon fill="none" stroke="black" points="1513.5,-472.5 1513.5,-497.5 1699.5,-497.5 1699.5,-472.5 1513.5,-472.5"/>
<text text-anchor="start" x="1540.54" y="-480.1" font-family="Times,serif" font-size="16.00">vehicles: [Vehicle!]!</text>
</g>
<!-- Mutation&#45;&gt;VehicleFilter -->
<g id="edge8" class="edge"><title>Mutation:createVehicleFilterport&#45;&gt;VehicleFilter</title>
<path fill="none" stroke="black" d="M1128.5,-633.5C1273.56,-633.5 1313.97,-647.35 1454,-609.5 1467.89,-605.746 1482.03,-600.704 1495.82,-595.009"/>
<polygon fill="black" stroke="black" points="1497.47,-598.11 1505.3,-590.97 1494.72,-591.671 1497.47,-598.11"/>
</g>
<!-- Mutation&#45;&gt;VehicleFilter -->
<g id="edge9" class="edge"><title>Mutation:updateVehicleFilterport&#45;&gt;VehicleFilter</title>
<path fill="none" stroke="black" d="M1128.5,-608.5C1274.1,-608.5 1310.58,-596.598 1454,-571.5 1467.39,-569.156 1481.37,-566.344 1495.19,-563.338"/>
<polygon fill="black" stroke="black" points="1496.2,-566.698 1505.21,-561.118 1494.69,-559.864 1496.2,-566.698"/>
</g>
<!-- Mutation&#45;&gt;VehicleFilter -->
<g id="edge10" class="edge"><title>Mutation:deleteVehicleFilterport&#45;&gt;VehicleFilter</title>
<path fill="none" stroke="black" d="M1128.5,-582.5C1148.01,-582.5 1151.76,-574.762 1171,-571.5 1280.4,-552.949 1406.99,-543.839 1495.21,-539.441"/>
<polygon fill="black" stroke="black" points="1495.42,-542.935 1505.23,-538.953 1495.08,-535.943 1495.42,-542.935"/>
</g>
<!-- DeleteResult -->
<g id="node6" class="node"><title>DeleteResult</title>
<polygon fill="none" stroke="black" points="1268.5,-500.5 1268.5,-525.5 1356.5,-525.5 1356.5,-500.5 1268.5,-500.5"/>
<text text-anchor="start" x="1271.18" y="-509.1" font-family="Times,serif" font-weight="bold" font-size="16.00">DeleteResult</text>
<polygon fill="none" stroke="black" points="1268.5,-475.5 1268.5,-500.5 1356.5,-500.5 1356.5,-475.5 1268.5,-475.5"/>
<text text-anchor="start" x="1293.62" y="-483.1" font-family="Times,serif" font-size="16.00">id: ID</text>
</g>
<!-- Mutation&#45;&gt;DeleteResult -->
<g id="edge11" class="edge"><title>Mutation:deleteParkingRuleport&#45;&gt;DeleteResult</title>
<path fill="none" stroke="black" d="M1128.5,-507.5C1169.01,-507.5 1214.53,-505.766 1250.04,-504.024"/>
<polygon fill="black" stroke="black" points="1250.44,-507.508 1260.25,-503.509 1250.08,-500.517 1250.44,-507.508"/>
</g>
<!-- ParkingRuleAssignment -->
<g id="node7" class="node"><title>ParkingRuleAssignment</title>
<polygon fill="none" stroke="black" points="1183.5,-423.5 1183.5,-448.5 1442.5,-448.5 1442.5,-423.5 1183.5,-423.5"/>
<text text-anchor="start" x="1234.79" y="-432.1" font-family="Times,serif" font-weight="bold" font-size="16.00">ParkingRuleAssignment</text>
<polygon fill="none" stroke="black" points="1183.5,-398.5 1183.5,-423.5 1442.5,-423.5 1442.5,-398.5 1183.5,-398.5"/>
<text text-anchor="start" x="1291.45" y="-406.1" font-family="Times,serif" font-size="16.00">id: ID!</text>
<polygon fill="none" stroke="black" points="1183.5,-373.5 1183.5,-398.5 1442.5,-398.5 1442.5,-373.5 1183.5,-373.5"/>
<text text-anchor="start" x="1245.24" y="-381.1" font-family="Times,serif" font-size="16.00">rules: [ParkingRule]!</text>
<polygon fill="none" stroke="black" points="1183.5,-348.5 1183.5,-373.5 1442.5,-373.5 1442.5,-348.5 1183.5,-348.5"/>
<text text-anchor="start" x="1260.36" y="-356.1" font-family="Times,serif" font-size="16.00">start: DateTime!</text>
<polygon fill="none" stroke="black" points="1183.5,-323.5 1183.5,-348.5 1442.5,-348.5 1442.5,-323.5 1183.5,-323.5"/>
<text text-anchor="start" x="1262.58" y="-331.1" font-family="Times,serif" font-size="16.00">end: DateTime!</text>
<polygon fill="none" stroke="black" points="1183.5,-298.5 1183.5,-323.5 1442.5,-323.5 1442.5,-298.5 1183.5,-298.5"/>
<text text-anchor="start" x="1260.35" y="-306.1" font-family="Times,serif" font-size="16.00">active: Boolean!</text>
<polygon fill="none" stroke="black" points="1183.5,-273.5 1183.5,-298.5 1442.5,-298.5 1442.5,-273.5 1183.5,-273.5"/>
<text text-anchor="start" x="1186.15" y="-281.1" font-family="Times,serif" font-size="16.00">vehicleFilterMode: VehicleFilterMode!</text>
<polygon fill="none" stroke="black" points="1183.5,-248.5 1183.5,-273.5 1442.5,-273.5 1442.5,-248.5 1183.5,-248.5"/>
<text text-anchor="start" x="1215.04" y="-256.1" font-family="Times,serif" font-size="16.00">vehicleFilters: [VehicleFilter!]</text>
<polygon fill="none" stroke="black" points="1183.5,-223.5 1183.5,-248.5 1442.5,-248.5 1442.5,-223.5 1183.5,-223.5"/>
<text text-anchor="start" x="1239.47" y="-231.1" font-family="Times,serif" font-size="16.00">priority: NonNegative!</text>
</g>
<!-- Mutation&#45;&gt;ParkingRuleAssignment -->
<g id="edge12" class="edge"><title>Mutation:deleteParkingRuleAssignmentport&#45;&gt;ParkingRuleAssignment</title>
<path fill="none" stroke="black" d="M1128.5,-432.5C1140.69,-432.5 1152.87,-430.808 1164.83,-427.874"/>
<polygon fill="black" stroke="black" points="1166.1,-431.154 1174.82,-425.126 1164.25,-424.404 1166.1,-431.154"/>
</g>
<!-- Vehicle -->
<g id="node8" class="node"><title>Vehicle</title>
<polygon fill="none" stroke="black" points="1767.5,-222.5 1767.5,-247.5 2438.5,-247.5 2438.5,-222.5 1767.5,-222.5"/>
<text text-anchor="start" x="2078.12" y="-231.1" font-family="Times,serif" font-weight="bold" font-size="16.00">Vehicle</text>
<polygon fill="none" stroke="black" points="1767.5,-197.5 1767.5,-222.5 2438.5,-222.5 2438.5,-197.5 1767.5,-197.5"/>
<text text-anchor="start" x="2081.45" y="-205.1" font-family="Times,serif" font-size="16.00">id: ID!</text>
<polygon fill="none" stroke="black" points="1767.5,-172.5 1767.5,-197.5 2438.5,-197.5 2438.5,-172.5 1767.5,-172.5"/>
<text text-anchor="start" x="2038.35" y="-180.1" font-family="Times,serif" font-size="16.00">licensePlate: String!</text>
<polygon fill="none" stroke="black" points="1767.5,-147.5 1767.5,-172.5 2438.5,-172.5 2438.5,-147.5 1767.5,-147.5"/>
<text text-anchor="start" x="2020.56" y="-155.1" font-family="Times,serif" font-size="16.00">numParkingSessions: Int!</text>
<polygon fill="none" stroke="black" points="1767.5,-122.5 1767.5,-147.5 2438.5,-147.5 2438.5,-122.5 1767.5,-122.5"/>
<text text-anchor="start" x="1770.39" y="-130.1" font-family="Times,serif" font-size="16.00">parkingSessions(page:PositiveInt, limit:PositiveInt, filter:DateFilterInput): ParkingSessionPagedResult!</text>
<polygon fill="none" stroke="black" points="1767.5,-97.5 1767.5,-122.5 2438.5,-122.5 2438.5,-97.5 1767.5,-97.5"/>
<text text-anchor="start" x="2009.46" y="-105.1" font-family="Times,serif" font-size="16.00">totalPaidCents: NonNegative</text>
</g>
<!-- Mutation&#45;&gt;Vehicle -->
<g id="edge13" class="edge"><title>Mutation:createVehicleport&#45;&gt;Vehicle</title>
<path fill="none" stroke="black" d="M1128.5,-357.5C1196.51,-357.5 1117.49,-252.47 1171,-210.5 1194.28,-192.238 1495.32,-182.436 1748.78,-177.389"/>
<polygon fill="black" stroke="black" points="1748.98,-180.886 1758.91,-177.189 1748.84,-173.887 1748.98,-180.886"/>
</g>
<!-- Mutation&#45;&gt;Vehicle -->
<g id="edge14" class="edge"><title>Mutation:deleteVehicleport&#45;&gt;Vehicle</title>
<path fill="none" stroke="black" d="M1128.5,-332.5C1197.79,-332.5 1116.26,-224.977 1171,-182.5 1216.91,-146.876 1505.14,-148.137 1748.81,-156.075"/>
<polygon fill="black" stroke="black" points="1748.8,-159.576 1758.91,-156.409 1749.04,-152.58 1748.8,-159.576"/>
</g>
<!-- Mutation&#45;&gt;Vehicle -->
<g id="edge15" class="edge"><title>Mutation:deleteVehicleByLicensePlateport&#45;&gt;Vehicle</title>
<path fill="none" stroke="black" d="M1128.5,-307.5C1201.65,-307.5 1113.05,-193.138 1171,-148.5 1366.96,2.45033 1661.25,-35.6956 1866.23,-90.7727"/>
<polygon fill="black" stroke="black" points="1865.35,-94.1617 1875.92,-93.4076 1867.19,-87.4068 1865.35,-94.1617"/>
</g>
<!-- Authentication -->
<g id="node9" class="node"><title>Authentication</title>
<polygon fill="none" stroke="black" points="1996.5,-1055.5 1996.5,-1080.5 2208.5,-1080.5 2208.5,-1055.5 1996.5,-1055.5"/>
<text text-anchor="start" x="2054.96" y="-1064.1" font-family="Times,serif" font-weight="bold" font-size="16.00">Authentication</text>
<polygon fill="none" stroke="black" points="1996.5,-1030.5 1996.5,-1055.5 2208.5,-1055.5 2208.5,-1030.5 1996.5,-1030.5"/>
<text text-anchor="start" x="1999.19" y="-1038.1" font-family="Times,serif" font-size="16.00">method: AuthenticationMethod!</text>
</g>
<!-- User&#45;&gt;Authentication -->
<g id="edge16" class="edge"><title>User:authenticationsport&#45;&gt;Authentication</title>
<path fill="none" stroke="black" d="M1716.5,-1023.5C1804.28,-1023.5 1902.93,-1031.86 1978.39,-1040.04"/>
<polygon fill="black" stroke="black" points="1978.09,-1043.53 1988.41,-1041.14 1978.86,-1036.57 1978.09,-1043.53"/>
</g>
<!-- RefreshToken -->
<g id="node10" class="node"><title>RefreshToken</title>
<polygon fill="none" stroke="black" points="2030.5,-978.5 2030.5,-1003.5 2175.5,-1003.5 2175.5,-978.5 2030.5,-978.5"/>
<text text-anchor="start" x="2057.69" y="-987.1" font-family="Times,serif" font-weight="bold" font-size="16.00">RefreshToken</text>
<polygon fill="none" stroke="black" points="2030.5,-953.5 2030.5,-978.5 2175.5,-978.5 2175.5,-953.5 2030.5,-953.5"/>
<text text-anchor="start" x="2033.03" y="-961.1" font-family="Times,serif" font-size="16.00">revokedAt: DateTime</text>
<polygon fill="none" stroke="black" points="2030.5,-928.5 2030.5,-953.5 2175.5,-953.5 2175.5,-928.5 2030.5,-928.5"/>
<text text-anchor="start" x="2035.68" y="-936.1" font-family="Times,serif" font-size="16.00">isRevoked: Boolean!</text>
</g>
<!-- User&#45;&gt;RefreshToken -->
<g id="edge17" class="edge"><title>User:refreshTokensport&#45;&gt;RefreshToken</title>
<path fill="none" stroke="black" d="M1716.5,-998.5C1817.76,-998.5 1933.48,-987.371 2011.4,-978.239"/>
<polygon fill="black" stroke="black" points="2012.14,-981.676 2021.66,-977.022 2011.31,-974.724 2012.14,-981.676"/>
</g>
<!-- LoginResult&#45;&gt;User -->
<g id="edge18" class="edge"><title>LoginResult:userport&#45;&gt;User</title>
<path fill="none" stroke="black" d="M1385.5,-929.5C1418.42,-929.5 1451.1,-939.985 1480.81,-954.757"/>
<polygon fill="black" stroke="black" points="1479.44,-957.988 1489.93,-959.472 1482.66,-951.77 1479.44,-957.988"/>
</g>
<!-- DeviceConfig -->
<g id="node11" class="node"><title>DeviceConfig</title>
<polygon fill="none" stroke="black" points="1526.5,-749.5 1526.5,-774.5 1687.5,-774.5 1687.5,-749.5 1526.5,-749.5"/>
<text text-anchor="start" x="1562.13" y="-758.1" font-family="Times,serif" font-weight="bold" font-size="16.00">DeviceConfig</text>
<polygon fill="none" stroke="black" points="1526.5,-724.5 1526.5,-749.5 1687.5,-749.5 1687.5,-724.5 1526.5,-724.5"/>
<text text-anchor="start" x="1547.25" y="-732.1" font-family="Times,serif" font-size="16.00">type: DeviceType!</text>
<polygon fill="none" stroke="black" points="1526.5,-699.5 1526.5,-724.5 1687.5,-724.5 1687.5,-699.5 1526.5,-699.5"/>
<text text-anchor="start" x="1543.24" y="-707.1" font-family="Times,serif" font-size="16.00">capturing: Boolean!</text>
<polygon fill="none" stroke="black" points="1526.5,-674.5 1526.5,-699.5 1687.5,-699.5 1687.5,-674.5 1526.5,-674.5"/>
<text text-anchor="start" x="1529.48" y="-682.1" font-family="Times,serif" font-size="16.00">minArea: NonNegative!</text>
<polygon fill="none" stroke="black" points="1526.5,-649.5 1526.5,-674.5 1687.5,-674.5 1687.5,-649.5 1526.5,-649.5"/>
<text text-anchor="start" x="1533.04" y="-657.1" font-family="Times,serif" font-size="16.00">resizeX: NonNegative!</text>
<polygon fill="none" stroke="black" points="1526.5,-624.5 1526.5,-649.5 1687.5,-649.5 1687.5,-624.5 1526.5,-624.5"/>
<text text-anchor="start" x="1533.04" y="-632.1" font-family="Times,serif" font-size="16.00">resizeY: NonNegative!</text>
</g>
<!-- Device&#45;&gt;DeviceConfig -->
<g id="edge19" class="edge"><title>Device:configport&#45;&gt;DeviceConfig</title>
<path fill="none" stroke="black" d="M1447.5,-677.5C1467.05,-677.5 1487.82,-679.172 1507.67,-681.594"/>
<polygon fill="black" stroke="black" points="1507.27,-685.072 1517.64,-682.882 1508.17,-678.13 1507.27,-685.072"/>
</g>
<!-- VehicleFilter&#45;&gt;Vehicle -->
<g id="edge20" class="edge"><title>VehicleFilter:vehiclesport&#45;&gt;Vehicle</title>
<path fill="none" stroke="black" d="M1700.5,-484.5C1847.56,-484.5 1973.15,-352.175 2042.86,-259.877"/>
<polygon fill="black" stroke="black" points="2045.84,-261.74 2049.02,-251.634 2040.23,-257.55 2045.84,-261.74"/>
</g>
<!-- ParkingRuleAssignment&#45;&gt;VehicleFilter -->
<g id="edge21" class="edge"><title>ParkingRuleAssignment:vehicleFiltersport&#45;&gt;VehicleFilter</title>
<path fill="none" stroke="black" d="M1443.5,-260.5C1535.96,-260.5 1576.71,-377.335 1593.89,-458.697"/>
<polygon fill="black" stroke="black" points="1590.54,-459.826 1595.96,-468.93 1597.4,-458.434 1590.54,-459.826"/>
</g>
<!-- ParkingSessionPagedResult -->
<g id="node12" class="node"><title>ParkingSessionPagedResult</title>
<polygon fill="none" stroke="black" points="2490,-219.5 2490,-244.5 2674,-244.5 2674,-219.5 2490,-219.5"/>
<text text-anchor="start" x="2492.68" y="-228.1" font-family="Times,serif" font-weight="bold" font-size="16.00">ParkingSessionPagedResult</text>
<polygon fill="none" stroke="black" points="2490,-194.5 2490,-219.5 2674,-219.5 2674,-194.5 2490,-194.5"/>
<text text-anchor="start" x="2507.13" y="-202.1" font-family="Times,serif" font-size="16.00">data: [ParkingSession!]</text>
<polygon fill="none" stroke="black" points="2490,-169.5 2490,-194.5 2674,-194.5 2674,-169.5 2490,-169.5"/>
<text text-anchor="start" x="2525.35" y="-177.1" font-family="Times,serif" font-size="16.00">page: PositiveInt!</text>
<polygon fill="none" stroke="black" points="2490,-144.5 2490,-169.5 2674,-169.5 2674,-144.5 2490,-144.5"/>
<text text-anchor="start" x="2525.33" y="-152.1" font-family="Times,serif" font-size="16.00">limit: PositiveInt!</text>
</g>
<!-- Vehicle&#45;&gt;ParkingSessionPagedResult -->
<g id="edge22" class="edge"><title>Vehicle:parkingSessionsport&#45;&gt;ParkingSessionPagedResult</title>
<path fill="none" stroke="black" d="M2439.5,-134.5C2450.33,-134.5 2461.28,-136.007 2472.04,-138.545"/>
<polygon fill="black" stroke="black" points="2471.3,-141.969 2481.86,-141.15 2473.09,-135.203 2471.3,-141.969"/>
</g>
<!-- ParkingSession -->
<g id="node13" class="node"><title>ParkingSession</title>
<polygon fill="none" stroke="black" points="2726,-254.5 2726,-279.5 3050,-279.5 3050,-254.5 2726,-254.5"/>
<text text-anchor="start" x="2838.67" y="-263.1" font-family="Times,serif" font-weight="bold" font-size="16.00">ParkingSession</text>
<polygon fill="none" stroke="black" points="2726,-229.5 2726,-254.5 3050,-254.5 3050,-229.5 2726,-229.5"/>
<text text-anchor="start" x="2866.45" y="-237.1" font-family="Times,serif" font-size="16.00">id: ID!</text>
<polygon fill="none" stroke="black" points="2726,-204.5 2726,-229.5 3050,-229.5 3050,-204.5 2726,-204.5"/>
<text text-anchor="start" x="2835.35" y="-212.1" font-family="Times,serif" font-size="16.00">active: Boolean!</text>
<polygon fill="none" stroke="black" points="2726,-179.5 2726,-204.5 3050,-204.5 3050,-179.5 2726,-179.5"/>
<text text-anchor="start" x="2835.36" y="-187.1" font-family="Times,serif" font-size="16.00">checkIn: Check!</text>
<polygon fill="none" stroke="black" points="2726,-154.5 2726,-179.5 3050,-179.5 3050,-154.5 2726,-154.5"/>
<text text-anchor="start" x="2832.69" y="-162.1" font-family="Times,serif" font-size="16.00">checkOut: Check</text>
<polygon fill="none" stroke="black" points="2726,-129.5 2726,-154.5 3050,-154.5 3050,-129.5 2726,-129.5"/>
<text text-anchor="start" x="2833.14" y="-137.1" font-family="Times,serif" font-size="16.00">vehicle: Vehicle!</text>
<polygon fill="none" stroke="black" points="2726,-104.5 2726,-129.5 3050,-129.5 3050,-104.5 2726,-104.5"/>
<text text-anchor="start" x="2814.92" y="-112.1" font-family="Times,serif" font-size="16.00">finalFee: NonNegative</text>
<polygon fill="none" stroke="black" points="2726,-79.5 2726,-104.5 3050,-104.5 3050,-79.5 2726,-79.5"/>
<text text-anchor="start" x="2728.7" y="-87.1" font-family="Times,serif" font-size="16.00">appliedAssignments: [AppliedRuleAssignments!]</text>
</g>
<!-- ParkingSessionPagedResult&#45;&gt;ParkingSession -->
<g id="edge23" class="edge"><title>ParkingSessionPagedResult:dataport&#45;&gt;ParkingSession</title>
<path fill="none" stroke="black" d="M2675,-207.5C2685.66,-207.5 2696.59,-207.148 2707.61,-206.522"/>
<polygon fill="black" stroke="black" points="2707.98,-210.006 2717.74,-205.874 2707.54,-203.02 2707.98,-210.006"/>
</g>
<!-- ParkingSession&#45;&gt;Vehicle -->
<g id="edge26" class="edge"><title>ParkingSession:vehicleport&#45;&gt;Vehicle</title>
<path fill="none" stroke="black" d="M2725,-141.5C2705.38,-141.5 2701.49,-133.737 2682,-131.5 2609.12,-123.138 2530.88,-122.856 2456.21,-126.732"/>
<polygon fill="black" stroke="black" points="2455.97,-123.24 2446.18,-127.279 2456.36,-130.229 2455.97,-123.24"/>
</g>
<!-- Check -->
<g id="node14" class="node"><title>Check</title>
<polygon fill="none" stroke="black" points="3116,-204.5 3116,-229.5 3259,-229.5 3259,-204.5 3116,-204.5"/>
<text text-anchor="start" x="3167.06" y="-213.1" font-family="Times,serif" font-weight="bold" font-size="16.00">Check</text>
<polygon fill="none" stroke="black" points="3116,-179.5 3116,-204.5 3259,-204.5 3259,-179.5 3116,-179.5"/>
<text text-anchor="start" x="3134.41" y="-187.1" font-family="Times,serif" font-size="16.00">time: DateTime!</text>
<polygon fill="none" stroke="black" points="3116,-154.5 3116,-179.5 3259,-179.5 3259,-154.5 3116,-154.5"/>
<text text-anchor="start" x="3118.85" y="-162.1" font-family="Times,serif" font-size="16.00">imagePaths: [String!]</text>
</g>
<!-- ParkingSession&#45;&gt;Check -->
<g id="edge24" class="edge"><title>ParkingSession:checkInport&#45;&gt;Check</title>
<path fill="none" stroke="black" d="M3051,-192.5C3066,-192.5 3081.93,-192.5 3097.39,-192.5"/>
<polygon fill="black" stroke="black" points="3097.48,-196 3107.48,-192.5 3097.48,-189 3097.48,-196"/>
</g>
<!-- ParkingSession&#45;&gt;Check -->
<g id="edge25" class="edge"><title>ParkingSession:checkOutport&#45;&gt;Check</title>
<path fill="none" stroke="black" d="M3051,-166.5C3066.08,-166.5 3081.93,-168.083 3097.26,-170.467"/>
<polygon fill="black" stroke="black" points="3096.81,-173.94 3107.25,-172.142 3097.97,-167.036 3096.81,-173.94"/>
</g>
<!-- AppliedRuleAssignments -->
<g id="node15" class="node"><title>AppliedRuleAssignments</title>
<polygon fill="none" stroke="black" points="3102,-103.5 3102,-128.5 3272,-128.5 3272,-103.5 3102,-103.5"/>
<text text-anchor="start" x="3104.79" y="-112.1" font-family="Times,serif" font-weight="bold" font-size="16.00">AppliedRuleAssignments</text>
<polygon fill="none" stroke="black" points="3102,-78.5 3102,-103.5 3272,-103.5 3272,-78.5 3102,-78.5"/>
<text text-anchor="start" x="3134.36" y="-86.1" font-family="Times,serif" font-size="16.00">start: DateTime!</text>
<polygon fill="none" stroke="black" points="3102,-53.5 3102,-78.5 3272,-78.5 3272,-53.5 3102,-53.5"/>
<text text-anchor="start" x="3136.58" y="-61.1" font-family="Times,serif" font-size="16.00">end: DateTime!</text>
<polygon fill="none" stroke="black" points="3102,-28.5 3102,-53.5 3272,-53.5 3272,-28.5 3102,-28.5"/>
<text text-anchor="start" x="3112.14" y="-36.1" font-family="Times,serif" font-size="16.00">feeCents: NonNegative</text>
<polygon fill="none" stroke="black" points="3102,-3.5 3102,-28.5 3272,-28.5 3272,-3.5 3102,-3.5"/>
<text text-anchor="start" x="3116.58" y="-11.1" font-family="Times,serif" font-size="16.00">rules: [ParkingRule!]!</text>
</g>
<!-- ParkingSession&#45;&gt;AppliedRuleAssignments -->
<g id="edge27" class="edge"><title>ParkingSession:appliedAssignmentsport&#45;&gt;AppliedRuleAssignments</title>
<path fill="none" stroke="black" d="M3051,-91.5C3061.68,-91.5 3072.75,-90.7347 3083.75,-89.472"/>
<polygon fill="black" stroke="black" points="3084.35,-92.9239 3093.82,-88.1802 3083.46,-85.9808 3084.35,-92.9239"/>
</g>
</g>
</svg>
